<?xml version="1.0" encoding="utf-8"?>
<!-- Generator: Adobe Illustrator 21.0.0, SVG Export Plug-In . SVG Version: 6.00 Build 0)  -->
<svg version="1.1" xmlns="http://www.w3.org/2000/svg" xmlns:xlink="http://www.w3.org/1999/xlink" x="0px" y="0px"
	 viewBox="0 0 489 69" style="enable-background:new 0 0 489 69;" xml:space="preserve">
<style type="text/css">
	.st0{fill:#E71F19;}
	.st1{fill:#1B2954;}
	.st2{font-family:'PingFang-SC-Medium';}
	.st3{font-size:30px;}
	.st4{fill:#289CA1;}
	.st5{font-size:14px;}
	.st6{fill:none;stroke:#000000;}
	.st7{fill:none;stroke:#000000;stroke-width:4;stroke-miterlimit:10;}
	.st8{fill:#093973;}
	.st9{fill:none;stroke:#000000;stroke-width:5.871;stroke-miterlimit:10;}
	.st10{fill:#7F8080;}
	.st11{font-family:'KaiTi';}
	.st12{font-size:12px;}
	.st13{letter-spacing:1;}
	.st14{fill:none;stroke:#C0BFBF;stroke-miterlimit:10;}
</style>
<g id="图层_1">
	<rect x="4" y="11.3" class="st0" width="6.3" height="45.3"/>
	<rect x="43.5" y="11.3" class="st0" width="6.3" height="45.3"/>
	<rect x="22.5" y="11.3" class="st0" width="6.3" height="45.3"/>
	
		<rect x="23.8" y="31.6" transform="matrix(6.123234e-17 -1 1 6.123234e-17 -27.5833 81.4167)" class="st0" width="6.3" height="45.8"/>
	
		<rect x="23.8" y="-9.4" transform="matrix(6.123234e-17 -1 1 6.123234e-17 13.4167 40.4167)" class="st0" width="6.3" height="45.8"/>
	
		<rect x="34.5" y="21.8" transform="matrix(6.123234e-17 -1 1 6.123234e-17 3.6667 71.6667)" class="st0" width="6.3" height="24.3"/>
	<text transform="matrix(1 0 0 1 221.168 34.1667)" class="st1 st2 st3">文献相似性检测服务</text>
	<text transform="matrix(1 0 0 1 296.0013 56.9626)" class="st4 st2 st5">查大同</text>
	<text transform="matrix(1 0 0 1 367.8346 56.9626)" class="st4 st2 st5">识小异</text>
	<circle class="st4" cx="353.7" cy="52.4" r="1.1"/>
	<path class="st4" d="M484.5,54.6H422c-0.5,0-0.9-0.4-0.9-0.9v-0.5c0-0.5,0.4-0.9,0.9-0.9h62.4c0.5,0,0.9,0.4,0.9,0.9v0.5
		C485.3,54.3,484.9,54.6,484.5,54.6z"/>
	<path class="st4" d="M284.5,54.6H222c-0.5,0-0.9-0.4-0.9-0.9v-0.5c0-0.5,0.4-0.9,0.9-0.9h62.4c0.5,0,0.9,0.4,0.9,0.9v0.5
		C285.3,54.3,284.9,54.6,284.5,54.6z"/>
	<g>
		<g>
			<path class="st8" d="M134.2,41.3v-2.8c0.3,0,0.5-0.1,0.6-0.3c0.1-0.1,0.1-0.3,0.1-0.7l0.2-17h2.8l-0.2,16.5
				c0,1.1-0.2,1.9-0.4,2.5c-0.2,0.6-0.7,1.1-1.3,1.5C135.6,41.1,135,41.3,134.2,41.3z"/>
		</g>
		<g>
			<path class="st8" d="M144.5,40.8c-0.6-0.4-1.1-0.9-1.3-1.5c-0.2-0.6-0.4-1.4-0.4-2.5l-0.2-16.5h2.8l0.2,17c0,0.4,0,0.6,0.1,0.7
				c0.1,0.2,0.3,0.3,0.6,0.3v2.8C145.5,41.3,144.9,41.1,144.5,40.8z"/>
		</g>
		<g>
			<rect x="134.2" y="15.1" class="st8" width="11.7" height="4.3"/>
		</g>
		<g>
			<rect x="147.3" y="37.9" class="st8" width="17" height="3.5"/>
		</g>
		<g>
			<path class="st8" d="M147.4,19l-0.3-3.5c0.5,0,0.8-0.1,1-0.1c0.6-0.1,0.9-0.3,1-0.4c0-0.1,0.3-0.3,0.9-1.5c0.6-1.1,1-1.7,1.4-2.1
				c0.4-0.5,1.2-1,2.5-1h4c1.3,0,2.1,0.5,2.6,1c0.3,0.3,0.6,0.7,1,1.4c0.8,1.4,1,1.7,1,1.7c0.2,0.3,0.4,0.5,0.5,0.6c0,0,0,0,0,0
				c0,0,0.4,0.2,1.8,0.4l-0.4,3.5c-1.7-0.2-2.8-0.5-3.6-1.1c-0.5-0.4-0.9-0.9-1.3-1.4c-0.1-0.1-0.2-0.3-1.1-2
				c-0.2-0.3-0.3-0.5-0.4-0.6c0,0-0.1,0-0.1,0h-4c0,0-0.1,0-0.1,0c-0.1,0.2-0.4,0.6-0.8,1.3c-0.6,1.2-1.1,1.9-1.5,2.3
				c-0.8,0.8-1.9,1.3-3.2,1.4C148.2,18.9,147.9,18.9,147.4,19z"/>
		</g>
		<g>
			<rect x="147.3" y="20.4" class="st8" width="17.4" height="3.5"/>
		</g>
		<g>
			<rect x="138.4" y="10.2" class="st8" width="3.7" height="31.2"/>
		</g>
		<g>
			<path class="st8" d="M147.9,25.4h2.8v7.3c0,0.3,0.2,0.5,0.7,0.7v3.3c-0.7-0.1-1.2-0.2-1.5-0.4c-0.8-0.4-1.4-1.2-1.7-2.2
				c-0.2-0.5-0.3-1.1-0.3-1.7V25.4z"/>
		</g>
		<g>
			<path class="st8" d="M153.6,25.4h2.8v7.1c0,0.6,0.2,0.9,0.7,0.9v3.4c-1-0.1-1.8-0.5-2.3-1.1c-0.8-0.9-1.1-1.9-1.1-3.2V25.4z"/>
		</g>
		<g>
			<path class="st8" d="M160.5,36.8v-3.4c0.5-0.1,0.7-0.3,0.7-0.8v-7.2h3.1v6.9c0,1.7-0.6,3-1.8,3.9
				C162.1,36.5,161.4,36.7,160.5,36.8z"/>
		</g>
		<g>
			<g>
				<rect x="64.4" y="13.3" class="st8" width="30.2" height="4"/>
			</g>
			<g>
				<polygon class="st8" points="93.3,25.2 73.6,25.2 73.6,23.3 76.4,20.2 93.3,20.2 				"/>
			</g>
			<g>
				<polygon class="st8" points="93.3,24.8 87,24.8 87,35.8 82.1,35.8 82.1,41.6 92,41.6 92.6,40.7 93.3,39.6 				"/>
			</g>
			<g>
				<polygon class="st8" points="72.8,16.9 66.7,16.9 66.7,35.7 64.3,35.7 64.3,41.3 71.5,41.3 72.1,40.5 72.8,39.8 				"/>
			</g>
		</g>
		<g>
			<g>
				<rect x="99.3" y="13.3" class="st8" width="30.2" height="4"/>
			</g>
			<g>
				<polygon class="st8" points="128.2,25.2 108.5,25.2 108.5,23.3 111.4,20.2 128.2,20.2 				"/>
			</g>
			<g>
				<polygon class="st8" points="128.2,24.8 121.9,24.8 121.9,35.8 117,35.8 117,41.6 127,41.6 127.5,40.7 128.2,39.6 				"/>
			</g>
			<g>
				<polygon class="st8" points="107.7,16.9 101.6,16.9 101.6,35.7 99.3,35.7 99.3,41.3 106.5,41.3 107.1,40.5 107.7,39.8 				"/>
			</g>
		</g>
		<g>
			<rect x="110.3" y="10.8" class="st8" width="8.1" height="5"/>
		</g>
		<g>
			<path class="st8" d="M173.2,30.8h-3.8c-0.1,0-0.1,0.1-0.1,0.1v6.8c0,0.1-0.1,0.1-0.1,0.1h-2.4c-0.1,0-0.1,0.1-0.1,0.1v3.5
				c0,0.1,0.1,0.1,0.1,0.1h4.2c0.9,0,1.6-0.5,2.1-1.2l0.2-0.3c0.1-0.3,0.2-0.6,0.2-0.8v-8.3C173.4,30.9,173.3,30.8,173.2,30.8z"/>
		</g>
		<g>
			<path class="st8" d="M173.9,41.3v-3c1.8-1.1,3.1-2.2,4-3.2c0.6-0.9,1-1.8,1.2-2.8c0.1-0.6,0.1-1.2,0.1-1.9V19.6h3.3l0,11.1
				c0,2,0.6,3.7,1.8,5c0.9,1,2.1,1.9,3.5,2.6v2.9c-1.5-0.4-2.9-1-4.1-1.9c-0.9-0.7-1.8-1.7-2.8-3.1c-0.9,1.4-1.8,2.4-2.7,3
				C177.1,40.2,175.6,40.8,173.9,41.3z"/>
		</g>
		<g>
			<rect x="189.3" y="12.7" class="st8" width="3" height="23.2"/>
		</g>
		<g>
			<rect x="174.8" y="11.7" class="st8" width="3" height="23.2"/>
		</g>
		<g>
			<rect x="177.8" y="11.7" class="st8" width="6.5" height="3.5"/>
		</g>
		<g>
			<rect x="184.3" y="11.7" class="st8" width="3" height="23.2"/>
		</g>
		<g>
			<rect x="189.3" y="38.1" class="st8" width="3" height="3.2"/>
		</g>
		<g>
			<path class="st8" d="M191.2,41.3v-3.2h1.1c0.8,0,1.4-0.3,1.7-0.8c0.2-0.3,0.3-0.9,0.3-1.8V11.7h3.2v24.5c0,3.4-1.7,5.1-5,5.1
				H191.2z"/>
		</g>
		<g>
			<path class="st8" d="M172.6,29.4c-3.2-0.5-4.5-2.9-4.9-3.9c-0.2-0.4-0.3-0.9-0.3-1.4v-2.9h4.3V24c0.2,0.5,0.7,1,1.5,1.1
				L172.6,29.4z"/>
		</g>
		<g>
			<path class="st8" d="M172.6,20.3c-3.2-0.5-4.5-2.9-4.9-3.9c-0.2-0.4-0.3-0.9-0.3-1.4v-2.9h4.3v2.7c0.2,0.5,0.7,1,1.5,1.1
				L172.6,20.3z"/>
		</g>
	</g>
	<g>
		<text transform="matrix(1 0 0 1 65.8184 55.8958)" class="st10 st11 st12 st13">WF  </text>
		<text transform="matrix(1 0 0 1 143.3863 55.8958)" class="st10 st11 st12">DETECTION</text>
		<text transform="matrix(1 0 0 1 82.0604 55.8958)" class="st10 st11 st12">SIMILARITY</text>
	</g>
	<line class="st14" x1="210" y1="7.3" x2="210" y2="62"/>
</g>
<g id="图层_2">
</g>
</svg>
